HIERARCHY
ROOT Hips
{
	OFFSET -3.958830 18.904000 13.208200
	CHANNELS 6 Xposition Yposition Zposition Zrotation Yrotation Xrotation 
	JOINT LHipJoint
	{
		OFFSET 0.000000 0.000000 0.000000
		CHANNELS 3 Zrotation Yrotation Xrotation
		JOINT LeftUpLeg
		{
			OFFSET 1.800000 -1.400000 0.085000
			CHANNELS 3 Zrotation Yrotation Xrotation
			JOINT LeftLeg
			{
				OFFSET 2.215000 -6.000000 0.000000
				CHANNELS 3 Zrotation Yrotation Xrotation
				JOINT LeftFoot
				{
					OFFSET 2.500000 -6.900000 0.000000
					CHANNELS 3 Zrotation Yrotation Xrotation
					JOINT LeftToeBase
					{
						OFFSET 0.200000 -0.500000 1.950000
						CHANNELS 3 Zrotation Yrotation Xrotation
						End Site
						{
							OFFSET 0.000000 0.000000 0.000000
						}
					}
				}
			}
		}
	}
	JOINT RHipJoint
	{
		OFFSET 0.000000 0.000000 0.000000
		CHANNELS 3 Zrotation Yrotation Xrotation
		JOINT RightUpLeg
		{
			OFFSET -1.800000 -1.400000 0.085000
			CHANNELS 3 Zrotation Yrotation Xrotation
			JOINT RightLeg
			{
				OFFSET -2.215000 -6.000000 0.000000
				CHANNELS 3 Zrotation Yrotation Xrotation
				JOINT RightFoot
				{
					OFFSET -2.500000 -6.900000 0.000000
					CHANNELS 3 Zrotation Yrotation Xrotation
					JOINT RightToeBase
					{
						OFFSET -0.200000 -0.500000 1.950000
						CHANNELS 3 Zrotation Yrotation Xrotation
						End Site
						{
							OFFSET 0.000000 0.000000 0.000000
						}
					}
				}
			}
		}
	}
	JOINT LowerBack
	{
		OFFSET 0.000000 0.000000 0.000000
		CHANNELS 3 Zrotation Yrotation Xrotation
		JOINT Spine
		{
			OFFSET -0.087000 1.940000 -0.288900
			CHANNELS 3 Zrotation Yrotation Xrotation
			JOINT Spine1
			{
				OFFSET 0.000000 1.950000 0.060000
				CHANNELS 3 Zrotation Yrotation Xrotation
				JOINT Neck
				{
					OFFSET 0.000000 0.000000 0.000000
					CHANNELS 3 Zrotation Yrotation Xrotation
					JOINT Neck1
					{
						OFFSET 0.000000 1.600000 0.340000
						CHANNELS 3 Zrotation Yrotation Xrotation
						JOINT Head
						{
							OFFSET 0.000000 1.667000 -0.240000
							CHANNELS 3 Zrotation Yrotation Xrotation
							End Site
							{
								OFFSET 0.000000 0.000000 0.000000
							}
						}
					}
				}
				JOINT LeftShoulder
				{
					OFFSET 0.000000 0.000000 0.000000
					CHANNELS 3 Zrotation Yrotation Xrotation
					JOINT LeftArm
					{
						OFFSET 2.700000 1.550000 -0.730000
						CHANNELS 3 Zrotation Yrotation Xrotation
						JOINT LeftForeArm
						{
							OFFSET 5.450000 0.000000 0.000000
							CHANNELS 3 Zrotation Yrotation Xrotation
							JOINT LeftHand
							{
								OFFSET 3.450000 0.000000 0.000000
								CHANNELS 3 Zrotation Yrotation Xrotation
								JOINT LeftHandIndex1
								{
									OFFSET 0.750000 0.000000 0.000000
									CHANNELS 3 Zrotation Yrotation Xrotation
									End Site
									{
										OFFSET 0.000000 0.000000 0.000000
									}
								}
							}
						}
					}
				}
				JOINT RightShoulder
				{
					OFFSET 0.000000 0.000000 0.000000
					CHANNELS 3 Zrotation Yrotation Xrotation
					JOINT RightArm
					{
						OFFSET -2.700000 1.550000 -0.730000
						CHANNELS 3 Zrotation Yrotation Xrotation
						JOINT RightForeArm
						{
							OFFSET -5.450000 0.000000 0.000000
							CHANNELS 3 Zrotation Yrotation Xrotation
							JOINT RightHand
							{
								OFFSET -3.450000 0.000000 0.000000
								CHANNELS 3 Zrotation Yrotation Xrotation
								JOINT RightHandIndex1
								{
									OFFSET -0.750000 0.000000 0.000000
									CHANNELS 3 Zrotation Yrotation Xrotation
									End Site
									{
										OFFSET 0.000000 0.000000 0.000000
									}
								}
							}
						}
					}
				}
			}
		}
	}
}
MOTION
Frames: 6
Frame Time: 0.016667
-1.745080 11.859320 -0.238750 -30.810111 23.432658 6.805778 -15.964515 9.823914 7.710860 13.837893 -24.022512 -77.040584 -15.591494 63.496032 112.376781 5.911802 27.508440 -2.167024 0.160410 0.101880 0.173450 18.074538 -7.452635 2.574332 -42.749978 -0.921417 -34.853468 -0.245863 -13.489151 52.834450 -0.973328 -8.541631 1.168880 0.025730 -0.101140 0.072770 -1.986408 -4.467037 -10.940233 10.393280 0.056315 44.953871 -3.989856 6.569692 5.382236 6.316927 1.104761 -27.928987 -2.768495 1.022135 46.928555 1.338540 -0.911870 -6.985790 -28.278868 -41.192675 11.073177 -7.639048 -17.903054 -0.116573 5.370257 6.708100 -0.696673 -4.242375 2.331636 0.336620 -0.114250 0.204470 0.007680 17.511838 49.200157 9.380420 3.384428 30.113530 -2.714943 -6.306670 4.691366 -0.350153 3.187288 -0.645273 -0.027070 0.085470 -0.013910 -0.091320 
-1.793900 11.953930 -0.115560 -30.953470 21.865800 8.190827 -15.959427 9.631105 7.904214 15.725002 -21.916331 -76.492515 -16.518322 63.616342 110.236399 5.820024 27.076961 -2.085015 0.105380 0.049760 0.093770 18.108123 -7.598754 2.364939 -41.784419 -1.136377 -33.518984 0.839706 -12.623268 47.582332 -0.757505 -7.836872 1.413548 0.013780 -0.005430 0.054140 -2.086029 -3.975109 -10.905096 6.286891 2.462685 42.301314 -1.302840 7.112093 5.628450 4.749769 -1.922039 -27.083694 -7.829644 3.366666 44.107616 1.957640 0.394290 -5.395500 -28.804519 -38.601781 8.655593 -8.181562 -17.900059 -0.317963 5.906563 5.504264 -0.665493 -4.254915 2.381045 0.290070 -0.062940 0.132200 0.027980 22.580243 46.402571 13.930102 6.650850 27.344789 -1.700671 -4.837360 3.493550 -0.243892 3.077156 -0.659476 -0.062670 0.116690 0.019450 -0.065430 
-1.863040 12.067700 0.014080 -31.394591 20.234902 9.401112 -16.016515 9.371883 8.269799 20.024476 -18.245056 -75.679075 -20.859009 65.133772 104.554031 5.578565 25.976163 -1.917289 0.056780 0.004400 0.023060 18.128020 -7.653645 2.023129 -39.746792 -1.223101 -32.477076 0.769080 -11.157846 42.607323 -0.544855 -7.029688 1.701026 0.013390 0.097170 0.038360 -2.065719 -3.612653 -10.819161 1.494975 4.995735 39.782147 2.555527 7.328543 4.514474 2.910047 -5.222720 -25.232073 -12.909149 6.351349 39.731126 2.430160 2.649160 -4.563100 -29.702988 -35.616775 7.236110 -8.680605 -17.162150 -0.284371 5.924438 4.308264 -0.642793 -4.243131 2.441158 0.246890 -0.007470 0.059720 0.050070 28.498619 43.041733 16.179618 10.014701 22.470051 -1.934782 -3.964645 4.450060 -0.238194 2.900718 -0.786456 -0.107290 0.156350 0.052030 -0.044560 
-1.932510 12.194800 0.155460 -32.048708 18.029587 10.105086 -16.100213 9.137340 8.655041 24.610096 -14.281422 -73.727936 -22.548100 66.056274 101.420814 5.344873 25.074929 -1.787808 0.013430 -0.033090 -0.029910 18.128836 -7.708285 1.644053 -37.428356 -1.246943 -31.426547 -0.053798 -9.436493 37.698773 -0.348313 -6.169630 2.014920 0.020580 0.179900 0.025510 -1.979915 -3.288396 -10.707561 -3.437087 7.480227 36.472690 5.903343 7.833548 4.457765 1.268680 -7.723892 -23.777629 -16.898435 8.448977 36.236227 1.666320 4.636310 -3.687830 -29.657295 -32.718442 5.976987 -9.164310 -16.859390 -0.225545 5.923619 3.357686 -0.633357 -4.258509 2.477599 0.204440 0.051110 -0.004450 0.062110 32.621536 40.101799 17.662739 13.085398 17.253883 -1.159536 -2.788536 1.536199 -0.191412 2.865187 -0.837244 -0.150080 0.190510 0.082470 -0.034470 
-2.008210 12.307500 0.299540 -33.243187 15.982321 10.976922 -16.187741 8.892574 9.024515 29.115096 -10.429010 -72.427366 -24.638904 67.404090 98.263019 5.086879 24.098127 -1.649218 0.027070 0.007580 -0.050620 18.141828 -7.715031 1.276894 -34.637406 -1.054014 -30.696501 -0.904358 -7.801431 32.966857 -0.190674 -5.316326 2.320283 0.080340 0.243860 0.026320 -1.901121 -3.012846 -10.533566 -7.581826 9.279301 32.132813 8.856062 8.104703 5.023895 -0.691101 -9.762370 -21.687254 -19.495993 10.146968 30.870719 1.184150 6.392920 -4.750160 -28.717548 -29.605102 5.019108 -10.138054 -17.060959 0.110783 5.840902 2.534436 -0.642215 -4.266624 2.560623 0.150770 0.104480 -0.051650 0.082670 35.857683 36.999652 18.044184 15.690343 12.598141 -1.016817 -3.679195 -0.175883 -0.232414 2.804166 -0.984087 -0.172070 0.222740 0.088690 -0.020820 
-2.063640 12.396370 0.432450 -34.532293 14.238990 11.901143 -16.281012 8.730193 9.332278 33.404553 -6.872670 -70.478129 -26.897588 68.051001 94.532209 4.763999 22.946071 -1.493483 0.063850 0.076040 -0.035500 18.151919 -7.697491 0.925908 -31.915910 -0.820184 -29.964705 -2.437875 -6.230582 28.923980 -0.084410 -4.559922 2.593056 0.152470 0.287580 0.043890 -1.810049 -2.866552 -10.337028 -11.147850 10.156947 27.124804 10.494134 7.971892 5.895903 -2.394030 -9.966354 -19.335393 -18.734031 12.006568 26.397248 0.717170 8.947980 -6.139710 -26.966017 -26.872204 4.776286 -10.855102 -16.872604 0.557437 5.427881 2.401527 -0.643976 -4.296645 2.636451 0.103370 0.163470 -0.076580 0.100620 36.933970 33.800478 17.079359 19.332947 8.509470 -1.359487 -5.132129 1.409696 -0.378108 2.662913 -1.190128 -0.184070 0.238850 0.076360 -0.021010 
